<?xml version="1.0" standalone="no"?>
<!DOCTYPE svg PUBLIC "-//W3C//DTD SVG 1.1//EN"
"http://www.w3.org/Graphics/SVG/1.1/DTD/svg11.dtd">
<svg width="61.3019mm" height="161.7mm" viewBox="-170.518 41.5946 61.3019 161.7" xmlns="http://www.w3.org/2000/svg" version = "1.1">
<title>Untitled</title>
<desc> made with 123D Design </desc>
<path d="M -135.304 94.8869 L -134.736 95.215 L -130.592 97.6074 L -129.509 98.2324 L -126.644 99.8869 L -126.644 99.9948 L -126.644 107.183 L -126.644 108.326 L -126.644 109.887 L -129.96 111.801 L -131.042 112.426 L -135.304 114.887 L -142.882 110.512 L -143.964 109.887 L -143.964 101.137 L -143.964 99.8869 L -143.851 99.8212 L -140.985 98.1667 L -140.016 97.6074 L -136.144 95.3721 z  M -143.143 78.7119 L -144.062 78.1817 L -146.304 76.8869 L -147.387 77.5119 L -154.964 81.8869 L -154.964 83.1369 L -154.964 91.8869 L -154.611 92.0908 L -154.382 92.2233 L -147.572 96.155 L -146.719 96.6475 L -146.304 96.8869 L -145.691 96.5329 L -144.609 95.9079 L -137.644 91.8869 L -137.644 90.6369 L -137.644 81.8869 L -137.808 81.7921 z  M -112.064 195.945 L -112.002 195.945 L -112.002 195.337 L -112.002 147.553 L -112.002 146.945 L -112.002 146.337 L -112.002 98.5526 L -112.002 97.9446 L -112.002 97.3367 L -112.002 49.5526 L -112.002 48.9446 L -116.94 48.9446 L -117.002 48.9446 L -117.002 48.9615 L -117.002 48.9617 L -117.002 49.0794 L -153.85 49.0794 L -159.579 49.0794 L -160.1 49.0794 L -167.579 49.0794 L -167.731 49.0794 L -167.731 52.8983 L -167.731 52.9361 L -167.731 53.5408 L -167.731 53.8616 L -167.731 53.9158 L -167.731 57.9194 L -167.731 58.034 L -167.731 58.3658 L -167.731 61.1133 L -167.731 61.4464 L -167.731 63.8154 L -167.731 63.8869 L -167.731 63.9638 L -167.731 64.2285 L -167.731 68.7768 L -167.731 69.3496 L -167.731 73.5513 L -167.731 73.8869 L -167.731 75.8692 L -167.731 76.1524 L -167.731 76.295 L -167.731 77.2176 L -160.726 81.2619 L -159.644 81.8869 L -159.644 90.6369 L -159.644 91.8869 L -162.673 93.6355 L -163.129 93.8988 L -167.678 96.5252 L -167.731 96.5562 L -167.731 96.56 L -167.731 96.5616 L -167.731 96.5736 L -167.731 96.5902 L -167.731 96.5965 L -167.731 96.6293 L -167.731 102.599 L -167.731 106.411 L -167.731 106.956 L -167.731 109.131 L -167.731 109.442 L -167.731 109.948 L -167.731 110.333 L -167.731 112.295 L -167.731 113.218 L -160.726 117.262 L -159.644 117.887 L -159.644 126.637 L -159.644 127.887 L -167.222 132.262 L -167.731 132.556 L -167.731 132.623 L -167.731 132.766 L -167.731 132.768 L -167.731 135.916 L -167.731 137.698 L -167.731 137.953 L -167.731 142.129 L -167.731 142.725 L -167.731 145.492 L -167.731 145.887 L -167.731 146.361 L -167.731 146.67 L -167.731 147.241 L -167.731 148.698 L -167.731 148.927 L -167.731 149.218 L -164.221 151.244 L -163.609 151.598 L -160.115 153.615 L -159.644 153.887 L -159.644 162.637 L -159.644 163.887 L -167.222 168.262 L -167.731 168.556 L -167.731 168.623 L -167.731 169.621 L -167.731 171.604 L -167.731 171.887 L -167.731 172.487 L -167.731 177.035 L -167.731 177.685 L -167.731 181.887 L -167.731 181.976 L -167.731 184.207 L -167.731 184.743 L -167.731 186.872 L -167.731 186.918 L -167.731 186.971 L -167.731 187.346 L -167.731 191.688 L -167.731 192.218 L -167.731 192.409 L -167.731 195.829 L -166.996 195.829 L -159.517 195.829 L -153.85 195.829 L -117.002 195.829 L -117.002 195.93 L -117.002 195.93 L -117.002 195.945 z  M -148.644 145.887 L -148.644 145.757 L -148.644 144.615 L -148.644 135.996 L -148.644 135.887 L -149.766 135.239 L -150.849 134.614 L -157.304 130.887 L -157.539 131.023 L -159.183 131.972 L -160.031 132.461 L -165.964 135.887 L -165.964 136.377 L -165.964 139.805 L -165.964 140.565 L -165.964 145.887 L -165.742 146.015 L -164.188 146.913 L -161.364 148.543 L -160.949 148.782 L -159.394 149.68 L -159.152 149.82 L -157.508 150.769 L -157.304 150.887 L -156.225 150.264 L -156.048 150.161 L -151.104 147.307 L -150.328 146.859 L -148.773 145.962 z  M -157.4 78.8317 L -159.044 77.8824 L -160.031 77.3125 L -165.964 73.8869 L -165.964 72.7849 L -165.964 64.0349 L -165.964 63.8869 L -165.47 63.6016 L -159.537 60.1759 L -158.948 59.8363 L -157.304 58.8869 L -157.262 58.9114 L -149.684 63.2864 L -148.644 63.8869 L -148.644 72.6369 L -148.644 73.8869 L -156.222 78.2619 L -157.304 78.8869 z  M -128.199 146.785 L -126.644 145.887 L -126.644 145.832 L -126.644 143.556 L -126.644 142.449 L -126.644 135.975 L -126.644 135.887 L -126.941 135.715 L -134.519 131.34 L -135.304 130.887 L -136.387 131.512 L -143.964 135.887 L -143.964 144.05 L -143.964 145.3 L -143.964 145.887 L -143.896 145.926 L -142.341 146.824 L -141.327 147.41 L -135.304 150.887 L -129.281 147.41 z  M -165.964 100.539 L -165.964 99.8869 L -163.099 98.2324 L -162.689 97.9961 L -162.414 97.8372 L -160.436 96.6951 L -159.346 96.066 L -159.168 95.9633 L -157.524 95.0139 L -157.304 94.8869 L -156.963 95.0838 L -156.827 95.1626 L -153.484 97.0924 L -152.791 97.4923 L -151.763 98.0862 L -148.897 99.7406 L -148.644 99.8869 L -148.644 107.899 L -148.644 109.149 L -148.644 109.887 L -148.799 109.976 L -156.377 114.351 L -157.304 114.887 L -158.948 113.938 L -159.183 113.802 L -165.117 110.376 L -165.964 109.887 L -165.964 105.702 L -165.964 105.104 z  M -143.964 73.8869 L -141.71 75.1887 L -140.698 75.7726 L -135.375 78.8458 L -135.304 78.8869 L -132.733 77.4024 L -131.65 76.7774 L -126.644 73.8869 L -126.644 73.5086 L -126.644 64.7586 L -126.644 63.8869 L -129.174 62.4259 L -129.883 62.0169 L -134.93 59.1028 L -135.304 58.8869 L -135.529 59.0166 L -143.107 63.3916 L -143.964 63.8869 L -143.964 64.8891 L -143.964 66.1391 z  M -137.644 153.887 L -137.644 162.637 L -137.644 163.887 L -137.938 164.057 L -140.954 165.798 L -141.743 166.254 L -146.304 168.887 L -153.882 164.512 L -154.964 163.887 L -154.964 155.137 L -154.964 153.887 L -153.591 153.094 L -153.351 152.955 L -147.147 149.373 L -146.304 148.887 L -138.726 153.262 z  M -154.964 117.887 L -154.048 117.358 L -146.47 112.983 L -146.304 112.887 L -143.72 114.379 L -142.638 115.004 L -137.644 117.887 L -137.644 119.415 L -137.644 120.238 L -137.644 121.26 L -137.644 127.658 L -137.644 127.671 L -137.644 127.774 L -137.644 127.887 L -138.204 128.21 L -145.781 132.585 L -146.304 132.887 L -147.414 132.246 L -148.497 131.621 L -154.964 127.887 L -154.964 119.137 z  M -149.188 182.201 L -156.766 186.576 L -157.134 186.789 L -157.304 186.887 L -158.948 185.938 L -160.031 185.313 L -165.964 181.887 L -165.964 173.137 L -165.964 171.887 L -160.031 168.461 L -158.976 167.852 L -157.332 166.903 L -157.304 166.887 L -149.726 171.262 L -148.644 171.887 L -148.644 172.818 L -148.644 181.568 L -148.644 181.887 z  M -126.644 181.887 L -134.222 186.262 L -135.304 186.887 L -142.882 182.512 L -143.964 181.887 L -143.964 177.159 L -143.964 176.16 L -143.964 172.138 L -143.964 171.887 L -143.536 171.64 L -138.68 168.836 L -138.258 168.592 L -137.004 167.868 L -136.772 167.734 L -135.304 166.887 L -127.726 171.262 L -126.644 171.887 L -126.644 172.651 L -126.644 180.644 L -126.644 181.129 z  " fill= "none" stroke="rgb(0,0,255)" stroke-width="0.05mm" />
</svg>
