<?xml version="1.0" standalone="no"?>
<!DOCTYPE svg PUBLIC "-//W3C//DTD SVG 1.1//EN"
"http://www.w3.org/Graphics/SVG/1.1/DTD/svg11.dtd">
<svg width="154.566mm" height="161.7mm" viewBox="-259.543 41.5946 154.566 161.7" xmlns="http://www.w3.org/2000/svg" version = "1.1">
<title>Untitled</title>
<desc> made with 123D Design </desc>
<path d="M -208.608 150.444 L -205.85 152.036 L -205.651 152.151 L -202.846 153.77 L -202.644 153.887 L -202.644 154.537 L -202.644 163.287 L -202.644 163.887 L -205.449 165.507 L -205.85 165.738 L -210.622 168.493 L -211.304 168.887 L -218.882 164.512 L -219.964 163.887 L -219.964 161.98 L -219.964 161.139 L -219.964 154.296 L -219.964 154.085 L -219.964 153.887 L -212.387 149.512 L -211.304 148.887 L -211.163 148.968 L -209.149 150.131 L -209.099 150.16 z  M -241.964 119.137 L -241.964 127.887 L -241.352 128.241 L -237.065 130.716 L -236.595 130.987 L -233.304 132.887 L -232.222 132.262 L -224.644 127.887 L -224.644 127.803 L -224.644 127.213 L -224.644 126.047 L -224.644 117.887 L -224.659 117.878 L -224.761 117.819 L -225.829 117.203 L -233.304 112.887 L -233.708 113.12 L -236.533 114.751 L -237.212 115.143 L -241.964 117.887 z  M -208.964 181.526 L -208.964 181.887 L -208.583 182.107 L -205.858 183.68 L -205.157 184.085 L -200.304 186.887 L -200.049 186.74 L -199.764 186.575 L -193.949 183.218 L -193.407 182.905 L -191.644 181.887 L -191.644 181.057 L -191.644 179.807 L -191.644 171.887 L -192.726 171.262 L -200.304 166.887 L -200.335 166.905 L -205.188 169.707 L -205.85 170.089 L -206.239 170.314 L -208.964 171.887 L -208.964 172.776 z  M -219.964 83.037 L -219.964 83.2308 L -219.964 90.8307 L -219.964 91.8869 L -218.882 92.5119 L -211.304 96.8869 L -210.953 96.6843 L -208.473 95.2523 L -206.181 93.929 L -205.785 93.7005 L -202.98 92.0808 L -202.644 91.8869 L -202.644 90.6369 L -202.644 81.8869 L -202.804 81.7942 L -205.61 80.1745 L -206.532 79.6422 L -211.304 76.8869 L -212.387 77.5119 L -219.964 81.8869 z  M -112.002 49.5526 L -112.002 97.3367 L -112.002 97.9446 L -112.002 98.5526 L -112.002 146.337 L -112.002 146.945 L -112.002 147.553 L -112.002 195.337 L -112.002 195.945 L -112.064 195.945 L -117.002 195.945 L -117.002 195.93 L -117.002 195.93 L -117.002 195.829 L -153.85 195.829 L -159.517 195.829 L -200.35 195.829 L -206.017 195.829 L -246.85 195.829 L -252.517 195.829 L -252.517 153.027 L -252.517 146.913 L -252.517 104.111 L -252.517 97.9961 L -252.517 55.194 L -252.517 49.0794 L -251.642 49.0794 L -251.121 49.0794 L -210.287 49.0794 L -205.61 49.0794 L -200.933 49.0794 L -160.1 49.0794 L -159.579 49.0794 L -153.85 49.0794 L -117.002 49.0794 L -117.002 48.9617 L -117.002 48.9615 L -117.002 48.9446 L -116.94 48.9446 L -112.002 48.9446 z  M -147.572 96.155 L -146.719 96.6475 L -146.304 96.8869 L -145.691 96.5329 L -144.609 95.9079 L -137.644 91.8869 L -137.644 90.6369 L -137.644 81.8869 L -137.808 81.7921 L -143.143 78.7119 L -144.062 78.1817 L -146.304 76.8869 L -147.387 77.5119 L -154.964 81.8869 L -154.964 83.1369 L -154.964 91.8869 L -154.611 92.0908 L -154.382 92.2233 z  M -159.644 91.8869 L -159.644 90.6369 L -159.644 81.8869 L -160.726 81.2619 L -168.304 76.8869 L -174.521 80.4759 L -175.505 81.0445 L -176.867 81.8305 L -176.964 81.8869 L -176.964 83.1369 L -176.964 91.8869 L -175.882 92.5119 L -168.304 96.8869 L -167.678 96.5252 L -163.129 93.8988 L -162.673 93.6355 z  M -226.133 76.6763 L -226.352 76.5499 L -229.653 74.644 L -230.147 74.3586 L -230.964 73.8869 L -230.964 73.6623 L -230.964 71.7233 L -230.964 70.6979 L -230.964 63.8869 L -223.387 59.5119 L -222.304 58.8869 L -218.299 61.199 L -217.217 61.824 L -213.644 63.8869 L -213.644 64.3366 L -213.644 73.0866 L -213.644 73.8869 L -221.222 78.2619 L -222.304 78.8869 L -222.673 78.6738 z  M -178.456 78.7993 L -178.563 78.7374 L -183.819 75.7027 L -184.643 75.2272 L -186.964 73.8869 L -186.964 73.5175 L -186.964 69.1327 L -186.964 68.2521 L -186.964 63.8869 L -179.387 59.5119 L -178.304 58.8869 L -172.795 62.0677 L -171.712 62.6927 L -169.644 63.8869 L -169.644 64.4381 L -169.644 73.1881 L -169.644 73.8869 L -176.719 77.9718 L -177.802 78.5968 L -178.304 78.8869 z  M -143.964 177.159 L -143.964 176.16 L -143.964 172.138 L -143.964 171.887 L -143.536 171.64 L -138.68 168.836 L -138.258 168.592 L -137.004 167.868 L -136.772 167.734 L -135.304 166.887 L -127.726 171.262 L -126.644 171.887 L -126.644 172.651 L -126.644 180.644 L -126.644 181.129 L -126.644 181.887 L -134.222 186.262 L -135.304 186.887 L -142.882 182.512 L -143.964 181.887 z  M -137.644 119.415 L -137.644 117.887 L -142.638 115.004 L -143.72 114.379 L -146.304 112.887 L -146.47 112.983 L -154.048 117.358 L -154.964 117.887 L -154.964 119.137 L -154.964 127.887 L -148.497 131.621 L -147.414 132.246 L -146.304 132.887 L -145.781 132.585 L -138.204 128.21 L -137.644 127.887 L -137.644 127.774 L -137.644 127.671 L -137.644 127.658 L -137.644 121.26 L -137.644 120.238 z  M -137.644 163.887 L -137.938 164.057 L -140.954 165.798 L -141.743 166.254 L -146.304 168.887 L -153.882 164.512 L -154.964 163.887 L -154.964 155.137 L -154.964 153.887 L -153.591 153.094 L -153.351 152.955 L -147.147 149.373 L -146.304 148.887 L -138.726 153.262 L -137.644 153.887 L -137.644 162.637 z  M -143.964 101.137 L -143.964 109.887 L -142.882 110.512 L -135.304 114.887 L -131.042 112.426 L -129.96 111.801 L -126.644 109.887 L -126.644 108.326 L -126.644 107.183 L -126.644 99.9948 L -126.644 99.8869 L -129.509 98.2324 L -130.592 97.6074 L -134.736 95.215 L -135.304 94.8869 L -136.144 95.3721 L -140.016 97.6074 L -140.985 98.1667 L -143.851 99.8212 L -143.964 99.8869 z  M -151.104 147.307 L -150.328 146.859 L -148.773 145.962 L -148.644 145.887 L -148.644 145.757 L -148.644 144.615 L -148.644 135.996 L -148.644 135.887 L -149.766 135.239 L -150.849 134.614 L -157.304 130.887 L -157.539 131.023 L -159.183 131.972 L -160.031 132.461 L -165.964 135.887 L -165.964 136.377 L -165.964 139.805 L -165.964 140.565 L -165.964 145.887 L -165.742 146.015 L -164.188 146.913 L -161.364 148.543 L -160.949 148.782 L -159.394 149.68 L -159.152 149.82 L -157.508 150.769 L -157.304 150.887 L -156.225 150.264 L -156.048 150.161 z  M -158.948 113.938 L -159.183 113.802 L -165.117 110.376 L -165.964 109.887 L -165.964 105.702 L -165.964 105.104 L -165.964 100.539 L -165.964 99.8869 L -163.099 98.2324 L -162.689 97.9961 L -162.414 97.8372 L -160.436 96.6951 L -159.346 96.066 L -159.168 95.9633 L -157.524 95.0139 L -157.304 94.8869 L -156.963 95.0838 L -156.827 95.1626 L -153.484 97.0924 L -152.791 97.4923 L -151.763 98.0862 L -148.897 99.7406 L -148.644 99.8869 L -148.644 107.899 L -148.644 109.149 L -148.644 109.887 L -148.799 109.976 L -156.377 114.351 L -157.304 114.887 z  M -126.644 145.832 L -126.644 143.556 L -126.644 142.449 L -126.644 135.975 L -126.644 135.887 L -126.941 135.715 L -134.519 131.34 L -135.304 130.887 L -136.387 131.512 L -143.964 135.887 L -143.964 144.05 L -143.964 145.3 L -143.964 145.887 L -143.896 145.926 L -142.341 146.824 L -141.327 147.41 L -135.304 150.887 L -129.281 147.41 L -128.199 146.785 L -126.644 145.887 z  M -180.644 123.927 L -180.644 120.491 L -180.644 120.166 L -180.644 117.887 L -181.726 117.262 L -189.304 112.887 L -189.493 112.996 L -190.813 113.758 L -191.707 114.274 L -197.964 117.887 L -197.964 119.137 L -197.964 127.887 L -197.137 128.365 L -191.345 131.708 L -191.09 131.856 L -189.304 132.887 L -188.222 132.262 L -180.644 127.887 L -180.644 127.453 L -180.644 124.418 z  M -148.644 172.818 L -148.644 171.887 L -149.726 171.262 L -157.304 166.887 L -157.332 166.903 L -158.976 167.852 L -160.031 168.461 L -165.964 171.887 L -165.964 173.137 L -165.964 181.887 L -160.031 185.313 L -158.948 185.938 L -157.304 186.887 L -157.134 186.789 L -156.766 186.576 L -149.188 182.201 L -148.644 181.887 L -148.644 181.568 z  M -203.722 148.914 L -204.385 148.531 L -205.82 147.702 L -205.85 147.685 L -206.266 147.445 L -206.34 147.402 L -206.347 147.398 L -207.102 146.962 L -207.188 146.913 L -208.742 146.015 L -208.964 145.887 L -208.964 143.928 L -208.964 143.648 L -208.964 136.857 L -208.964 135.887 L -206.239 134.314 L -205.85 134.089 L -200.997 131.287 L -200.304 130.887 L -194.807 134.061 L -194.022 134.514 L -191.941 135.715 L -191.644 135.887 L -191.644 144.637 L -191.644 145.887 L -193.199 146.785 L -193.421 146.913 L -199.444 150.39 L -200.304 150.887 z  M -169.644 171.887 L -169.644 180.637 L -169.644 181.887 L -171.247 182.812 L -172.329 183.437 L -178.304 186.887 L -185.882 182.512 L -186.964 181.887 L -186.964 181.455 L -186.964 176.333 L -186.964 175.515 L -186.964 171.887 L -184.177 170.278 L -183.095 169.653 L -178.304 166.887 L -178.267 166.908 L -178.142 166.981 L -170.601 171.334 z  M -157.304 78.8869 L -157.4 78.8317 L -159.044 77.8824 L -160.031 77.3125 L -165.964 73.8869 L -165.964 72.7849 L -165.964 64.0349 L -165.964 63.8869 L -165.47 63.6016 L -159.537 60.1759 L -158.948 59.8363 L -157.304 58.8869 L -157.262 58.9114 L -149.684 63.2864 L -148.644 63.8869 L -148.644 72.6369 L -148.644 73.8869 L -156.222 78.2619 z  M -197.964 91.8869 L -197.964 91.8649 L -197.964 89.9777 L -197.964 88.7498 L -197.964 81.8869 L -190.387 77.5119 L -189.304 76.8869 L -187.277 78.0571 L -186.557 78.473 L -181.006 81.6778 L -180.644 81.8869 L -180.644 90.6369 L -180.644 91.8869 L -188.222 96.2619 L -189.304 96.8869 L -196.882 92.5119 z  M -159.644 127.887 L -159.644 126.637 L -159.644 117.887 L -160.726 117.262 L -168.304 112.887 L -169.387 113.512 L -176.964 117.887 L -176.964 119.137 L -176.964 127.887 L -175.882 128.512 L -168.304 132.887 L -167.222 132.262 z  M -200.304 78.8869 L -200.699 78.6589 L -205.552 75.8572 L -206.239 75.4602 L -208.964 73.8869 L -208.964 65.1369 L -208.964 63.8869 L -206.239 62.3136 L -205.302 61.7725 L -200.449 58.9708 L -200.304 58.8869 L -200.005 59.0598 L -192.583 63.345 L -191.8 63.7971 L -191.644 63.8869 L -191.644 63.9602 L -191.644 64.2709 L -191.644 72.9476 L -191.644 73.8869 L -199.222 78.2619 z  M -241.964 91.8869 L -241.964 91.6449 L -241.964 87.3119 L -241.964 86.3039 L -241.964 81.8869 L -234.387 77.5119 L -233.304 76.8869 L -232.782 77.1884 L -232.179 77.5365 L -225.124 81.6099 L -224.644 81.8869 L -224.644 90.6369 L -224.644 91.8869 L -232.222 96.2619 L -233.304 96.8869 L -240.882 92.5119 z  M -184.327 147.41 L -185.188 146.913 L -186.742 146.015 L -186.964 145.887 L -186.964 137.137 L -186.964 135.887 L -179.387 131.512 L -178.304 130.887 L -170.84 135.196 L -169.774 135.812 L -169.66 135.878 L -169.644 135.887 L -169.644 135.94 L -169.644 135.948 L -169.644 144.645 L -169.644 145.887 L -171.199 146.785 L -171.421 146.913 L -177.444 150.39 L -178.304 150.887 z  M -171.365 110.88 L -171.611 111.022 L -177.467 114.404 L -178.304 114.887 L -185.882 110.512 L -186.964 109.887 L -186.964 101.137 L -186.964 99.8869 L -184.099 98.2324 L -183.689 97.9961 L -178.977 95.2755 L -178.304 94.8869 L -173.592 97.6074 L -172.919 97.9961 L -170.053 99.6505 L -169.644 99.8869 L -169.644 107.827 L -169.644 108.961 L -169.644 109.771 L -169.644 109.887 z  M -168.304 168.887 L -169.153 168.397 L -175.835 164.539 L -176.069 164.404 L -176.964 163.887 L -176.964 155.137 L -176.964 153.887 L -169.387 149.512 L -168.304 148.887 L -164.221 151.244 L -163.609 151.598 L -160.115 153.615 L -159.644 153.887 L -159.644 162.637 L -159.644 163.887 L -167.222 168.262 z  M -193.259 110.819 L -193.49 110.953 L -199.452 114.395 L -200.304 114.887 L -205.157 112.085 L -205.85 111.685 L -208.575 110.112 L -208.964 109.887 L -208.964 102.339 L -208.964 101.26 L -208.964 100.059 L -208.964 99.8869 L -206.412 98.4131 L -206.047 98.2026 L -205.875 98.1031 L -205.85 98.0889 L -205.8 98.06 L -205.793 98.0559 L -205.702 98.0036 L -205.689 97.9961 L -200.977 95.2755 L -200.304 94.8869 L -195.592 97.6074 L -194.919 97.9961 L -192.053 99.6505 L -191.644 99.8869 L -191.644 108.637 L -191.644 109.887 z  M -220.559 113.879 L -221.547 114.45 L -222.209 114.832 L -222.304 114.887 L -229.882 110.512 L -230.964 109.887 L -230.964 101.137 L -230.964 99.8869 L -228.099 98.2324 L -227.689 97.9961 L -222.977 95.2755 L -222.304 94.8869 L -217.592 97.6074 L -216.919 97.9961 L -214.053 99.6505 L -213.644 99.8869 L -213.644 105.381 L -213.644 106.166 L -213.644 109.422 L -213.644 109.887 z  M -228.327 147.41 L -229.188 146.913 L -230.742 146.015 L -230.964 145.887 L -230.964 137.137 L -230.964 135.887 L -223.387 131.512 L -222.304 130.887 L -220.034 132.197 L -219.71 132.385 L -214.402 135.449 L -213.644 135.887 L -213.644 138.386 L -213.644 138.743 L -213.644 144.994 L -213.644 145.887 L -215.199 146.785 L -215.421 146.913 L -221.444 150.39 L -222.304 150.887 z  M -135.304 78.8869 L -135.375 78.8458 L -140.698 75.7726 L -141.71 75.1887 L -143.964 73.8869 L -143.964 66.1391 L -143.964 64.8891 L -143.964 63.8869 L -143.107 63.3916 L -135.529 59.0166 L -135.304 58.8869 L -134.93 59.1028 L -129.883 62.0169 L -129.174 62.4259 L -126.644 63.8869 L -126.644 64.7586 L -126.644 73.5086 L -126.644 73.8869 L -131.65 76.7774 L -132.733 77.4024 z  M -197.964 153.887 L -197.964 155.017 L -197.964 156.267 L -197.964 163.887 L -196.882 164.512 L -189.304 168.887 L -186.812 167.448 L -185.729 166.823 L -180.644 163.887 L -180.644 162.637 L -180.644 153.887 L -181.726 153.262 L -189.304 148.887 L -190.387 149.512 z  M -205.449 129.507 L -205.85 129.738 L -210.622 132.493 L -211.304 132.887 L -218.882 128.512 L -219.964 127.887 L -219.964 119.137 L -219.964 117.887 L -212.387 113.512 L -211.304 112.887 L -206.532 115.642 L -205.85 116.036 L -203.045 117.656 L -202.644 117.887 L -202.644 126.637 L -202.644 127.887 z  " fill= "none" stroke="rgb(0,0,255)" stroke-width="0.05mm" />
</svg>
