solid extensionBlowerVinsV2
facet normal 0.7933533402912352 0.0 0.6087614290087208
  outer loop
    vertex 2.598076211353315 14.499999999999996 23.5
    vertex 2.121320343559642 0.0 24.121320343559642
    vertex 2.598076211353315 0.0 23.5
  endloop
endfacet
facet normal 0.7933533402912352 0.0 0.6087614290087208
  outer loop
    vertex 2.121320343559642 0.0 24.121320343559642
    vertex 2.598076211353315 14.499999999999996 23.5
    vertex 2.121320343559642 14.499999999999996 24.121320343559642
  endloop
endfacet
facet normal 0.130526192220052 3.5108718409695867e-20 0.9914448613738105
  outer loop
    vertex 0.7764571353075608 0.0 24.897777478867205
    vertex 0.0 14.499999999999998 25.0
    vertex 0.0 0.0 25.0
  endloop
endfacet
facet normal 0.130526192220052 3.5108718409695867e-20 0.9914448613738105
  outer loop
    vertex 0.0 14.499999999999998 25.0
    vertex 0.7764571353075608 0.0 24.897777478867205
    vertex 0.7764571353075608 14.499999999999996 24.897777478867205
  endloop
endfacet
facet normal -1.0 0.0 0.0
  outer loop
    vertex 0.0 0.0 25.0
    vertex 0.0 1.4999999999999987 23.5
    vertex 0.0 2.8199664825478975e-15 10.0
  endloop
endfacet
facet normal -1.0 0.0 0.0
  outer loop
    vertex 0.0 1.4999999999999987 23.5
    vertex 0.0 0.0 25.0
    vertex 0.0 14.499999999999998 25.0
  endloop
endfacet
facet normal -1.0 0.0 0.0
  outer loop
    vertex 0.0 1.4999999999999987 23.5
    vertex 0.0 14.499999999999998 25.0
    vertex 0.0 12.999999999999998 23.5
  endloop
endfacet
facet normal -1.0 0.0 0.0
  outer loop
    vertex 0.0 12.999999999999998 23.5
    vertex 0.0 14.499999999999998 25.0
    vertex -3.656128489416696e-18 12.999999999999998 20.5
  endloop
endfacet
facet normal -1.0 0.0 0.0
  outer loop
    vertex -3.656128489416696e-18 12.999999999999998 20.5
    vertex 0.0 14.499999999999998 25.0
    vertex 0.0 14.499999999999996 22.0
  endloop
endfacet
facet normal -1.0 0.0 0.0
  outer loop
    vertex 0.0 2.8199664825478975e-15 10.0
    vertex -3.656128489416696e-18 1.4999999999999987 20.5
    vertex 0.0 14.499999999999998 10.0
  endloop
endfacet
facet normal -1.0 0.0 0.0
  outer loop
    vertex -3.656128489416696e-18 1.4999999999999987 20.5
    vertex 0.0 2.8199664825478975e-15 10.0
    vertex 0.0 1.4999999999999987 23.5
  endloop
endfacet
facet normal -1.0 0.0 0.0
  outer loop
    vertex 0.0 14.499999999999998 10.0
    vertex -3.656128489416696e-18 1.4999999999999987 20.5
    vertex -3.656128489416696e-18 12.999999999999998 20.5
  endloop
endfacet
facet normal -1.0 0.0 0.0
  outer loop
    vertex 0.0 14.499999999999998 10.0
    vertex -3.656128489416696e-18 12.999999999999998 20.5
    vertex 0.0 14.499999999999996 22.0
  endloop
endfacet
facet normal -0.6087614290087227 7.982118235222159e-32 -0.7933533402912336
  outer loop
    vertex 1.0606601717798216 12.999999999999998 23.06066017177982
    vertex 0.7500000000000008 1.4999999999999987 23.299038105676658
    vertex 0.7500000000000008 12.999999999999998 23.299038105676658
  endloop
endfacet
facet normal -0.6087614290087227 7.982118235222159e-32 -0.7933533402912336
  outer loop
    vertex 0.7500000000000008 1.4999999999999987 23.299038105676658
    vertex 1.0606601717798216 12.999999999999998 23.06066017177982
    vertex 1.0606601717798216 1.4999999999999987 23.06066017177982
  endloop
endfacet
facet normal 0.9914448613738104 0.0 0.13052619222005166
  outer loop
    vertex 3.0 14.499999999999996 22.0
    vertex 2.897777478867204 0.0 22.776457135307563
    vertex 3.0 0.0 22.0
  endloop
endfacet
facet normal 0.9914448613738104 0.0 0.13052619222005166
  outer loop
    vertex 2.897777478867204 0.0 22.776457135307563
    vertex 3.0 14.499999999999996 22.0
    vertex 2.897777478867204 14.499999999999996 22.776457135307563
  endloop
endfacet
facet normal -0.3826834323650885 -3.1939316349654944e-19 -0.9238795325112873
  outer loop
    vertex 0.7500000000000008 12.999999999999998 23.299038105676658
    vertex 0.3882285676537824 1.4999999999999987 23.448888739433603
    vertex 0.3882285676537824 12.999999999999998 23.448888739433603
  endloop
endfacet
facet normal -0.3826834323650885 -3.1939316349654944e-19 -0.9238795325112873
  outer loop
    vertex 0.3882285676537824 1.4999999999999987 23.448888739433603
    vertex 0.7500000000000008 12.999999999999998 23.299038105676658
    vertex 0.7500000000000008 1.4999999999999987 23.299038105676658
  endloop
endfacet
facet normal -0.9238795325112867 2.6459396009905533e-19 -0.3826834323650904
  outer loop
    vertex 1.2990381056766587 12.999999999999998 22.749999999999996
    vertex 1.4488887394336025 1.4999999999999987 22.38822856765378
    vertex 1.2990381056766587 1.4999999999999987 22.749999999999996
  endloop
endfacet
facet normal -0.9238795325112867 2.6459396009905533e-19 -0.3826834323650904
  outer loop
    vertex 1.4488887394336025 1.4999999999999987 22.38822856765378
    vertex 1.2990381056766587 12.999999999999998 22.749999999999996
    vertex 1.4488887394336025 12.999999999999998 22.38822856765378
  endloop
endfacet
facet normal -0.13052619222005135 -3.896628679830156e-32 -0.9914448613738105
  outer loop
    vertex 0.3882285676537824 12.999999999999998 23.448888739433603
    vertex 0.0 1.4999999999999987 23.5
    vertex 0.0 12.999999999999998 23.5
  endloop
endfacet
facet normal -0.13052619222005135 -3.896628679830156e-32 -0.9914448613738105
  outer loop
    vertex 0.0 1.4999999999999987 23.5
    vertex 0.3882285676537824 12.999999999999998 23.448888739433603
    vertex 0.3882285676537824 1.4999999999999987 23.448888739433603
  endloop
endfacet
facet normal -0.7933533402912362 -4.209082067168074e-19 -0.6087614290087197
  outer loop
    vertex 1.0606601717798216 12.999999999999998 23.06066017177982
    vertex 1.2990381056766587 1.4999999999999987 22.749999999999996
    vertex 1.0606601717798216 1.4999999999999987 23.06066017177982
  endloop
endfacet
facet normal -0.7933533402912362 -4.209082067168074e-19 -0.6087614290087197
  outer loop
    vertex 1.2990381056766587 1.4999999999999987 22.749999999999996
    vertex 1.0606601717798216 12.999999999999998 23.06066017177982
    vertex 1.2990381056766587 12.999999999999998 22.749999999999996
  endloop
endfacet
facet normal 0.6087614290087212 0.0 0.7933533402912347
  outer loop
    vertex 2.121320343559642 0.0 24.121320343559642
    vertex 1.4999999999999978 14.499999999999996 24.598076211353316
    vertex 1.4999999999999978 0.0 24.598076211353316
  endloop
endfacet
facet normal 0.6087614290087212 0.0 0.7933533402912347
  outer loop
    vertex 1.4999999999999978 14.499999999999996 24.598076211353316
    vertex 2.121320343559642 0.0 24.121320343559642
    vertex 2.121320343559642 14.499999999999996 24.121320343559642
  endloop
endfacet
facet normal 0.3826834323650885 0.0 0.9238795325112874
  outer loop
    vertex 1.4999999999999978 0.0 24.598076211353316
    vertex 0.7764571353075608 14.499999999999996 24.897777478867205
    vertex 0.7764571353075608 0.0 24.897777478867205
  endloop
endfacet
facet normal 0.3826834323650885 0.0 0.9238795325112874
  outer loop
    vertex 0.7764571353075608 14.499999999999996 24.897777478867205
    vertex 1.4999999999999978 0.0 24.598076211353316
    vertex 1.4999999999999978 14.499999999999996 24.598076211353316
  endloop
endfacet
facet normal 0.9238795325112862 0.0 0.3826834323650915
  outer loop
    vertex 2.897777478867204 14.499999999999996 22.776457135307563
    vertex 2.598076211353315 0.0 23.5
    vertex 2.897777478867204 0.0 22.776457135307563
  endloop
endfacet
facet normal 0.9238795325112862 0.0 0.3826834323650915
  outer loop
    vertex 2.598076211353315 0.0 23.5
    vertex 2.897777478867204 14.499999999999996 22.776457135307563
    vertex 2.598076211353315 14.499999999999996 23.5
  endloop
endfacet
facet normal -0.0 1.0 -0.0
  outer loop
    vertex -3.656128489416696e-18 1.4999999999999987 20.5
    vertex 19.499999999999996 1.4999999999999987 0.0
    vertex 5.0 1.4999999999999987 0.0
  endloop
endfacet
facet normal -0.0 1.0 -0.0
  outer loop
    vertex 19.499999999999996 1.4999999999999987 0.0
    vertex -3.656128489416696e-18 1.4999999999999987 20.5
    vertex 1.5 1.4999999999999987 22.0
  endloop
endfacet
facet normal -0.0 1.0 -0.0
  outer loop
    vertex 1.5 1.4999999999999987 22.0
    vertex -3.656128489416696e-18 1.4999999999999987 20.5
    vertex 0.0 1.4999999999999987 23.5
  endloop
endfacet
facet normal -0.0 1.0 -0.0
  outer loop
    vertex 1.5 1.4999999999999987 22.0
    vertex 0.0 1.4999999999999987 23.5
    vertex 1.4488887394336025 1.4999999999999987 22.38822856765378
  endloop
endfacet
facet normal -0.0 1.0 -0.0
  outer loop
    vertex 1.4488887394336025 1.4999999999999987 22.38822856765378
    vertex 0.0 1.4999999999999987 23.5
    vertex 1.2990381056766587 1.4999999999999987 22.749999999999996
  endloop
endfacet
facet normal -0.0 1.0 -0.0
  outer loop
    vertex 1.2990381056766587 1.4999999999999987 22.749999999999996
    vertex 0.0 1.4999999999999987 23.5
    vertex 1.0606601717798216 1.4999999999999987 23.06066017177982
  endloop
endfacet
facet normal -0.0 1.0 -0.0
  outer loop
    vertex 1.0606601717798216 1.4999999999999987 23.06066017177982
    vertex 0.0 1.4999999999999987 23.5
    vertex 0.7500000000000008 1.4999999999999987 23.299038105676658
  endloop
endfacet
facet normal -0.0 1.0 -0.0
  outer loop
    vertex 0.7500000000000008 1.4999999999999987 23.299038105676658
    vertex 0.0 1.4999999999999987 23.5
    vertex 0.3882285676537824 1.4999999999999987 23.448888739433603
  endloop
endfacet
facet normal -0.7739572992033212 -4.516826780281422e-17 -0.6332377902572627
  outer loop
    vertex 1.5 12.999999999999998 22.0
    vertex 19.499999999999996 1.4999999999999987 0.0
    vertex 1.5 1.4999999999999987 22.0
  endloop
endfacet
facet normal -0.7739572992033212 -4.516826780281422e-17 -0.6332377902572627
  outer loop
    vertex 19.499999999999996 1.4999999999999987 0.0
    vertex 1.5 12.999999999999998 22.0
    vertex 19.499999999999996 9.999999999999998 0.0
  endloop
endfacet
facet normal 7.187374548648693e-17 1.0 4.430542510155188e-17
  outer loop
    vertex -3.9999999999999996 2.8199664825478975e-15 10.0
    vertex 0.0 0.0 -1.5
    vertex -3.9999999999999996 0.0 -1.5
  endloop
endfacet
facet normal 7.187374548648693e-17 1.0 4.430542510155188e-17
  outer loop
    vertex 0.0 0.0 -1.5
    vertex -3.9999999999999996 2.8199664825478975e-15 10.0
    vertex -7.826979293989726e-32 2.8199664825478975e-15 0.0
  endloop
endfacet
facet normal 7.187374548648693e-17 1.0 4.430542510155188e-17
  outer loop
    vertex -7.826979293989726e-32 2.8199664825478975e-15 0.0
    vertex -3.9999999999999996 2.8199664825478975e-15 10.0
    vertex 21.0 0.0 0.0
  endloop
endfacet
facet normal 7.187374548648693e-17 1.0 4.430542510155188e-17
  outer loop
    vertex 21.0 0.0 0.0
    vertex -3.9999999999999996 2.8199664825478975e-15 10.0
    vertex 0.0 2.8199664825478975e-15 10.0
  endloop
endfacet
facet normal 7.187374548648693e-17 1.0 4.430542510155188e-17
  outer loop
    vertex 21.0 0.0 0.0
    vertex 0.0 2.8199664825478975e-15 10.0
    vertex 3.0 0.0 22.0
  endloop
endfacet
facet normal 7.187374548648693e-17 1.0 4.430542510155188e-17
  outer loop
    vertex 3.0 0.0 22.0
    vertex 0.0 2.8199664825478975e-15 10.0
    vertex 0.0 0.0 25.0
  endloop
endfacet
facet normal 7.187374548648693e-17 1.0 4.430542510155188e-17
  outer loop
    vertex 3.0 0.0 22.0
    vertex 0.0 0.0 25.0
    vertex 2.897777478867204 0.0 22.776457135307563
  endloop
endfacet
facet normal 7.187374548648693e-17 1.0 4.430542510155188e-17
  outer loop
    vertex 2.897777478867204 0.0 22.776457135307563
    vertex 0.0 0.0 25.0
    vertex 2.598076211353315 0.0 23.5
  endloop
endfacet
facet normal 7.187374548648693e-17 1.0 4.430542510155188e-17
  outer loop
    vertex 2.598076211353315 0.0 23.5
    vertex 0.0 0.0 25.0
    vertex 2.121320343559642 0.0 24.121320343559642
  endloop
endfacet
facet normal 7.187374548648693e-17 1.0 4.430542510155188e-17
  outer loop
    vertex 2.121320343559642 0.0 24.121320343559642
    vertex 0.0 0.0 25.0
    vertex 1.4999999999999978 0.0 24.598076211353316
  endloop
endfacet
facet normal 7.187374548648693e-17 1.0 4.430542510155188e-17
  outer loop
    vertex 1.4999999999999978 0.0 24.598076211353316
    vertex 0.0 0.0 25.0
    vertex 0.7764571353075608 0.0 24.897777478867205
  endloop
endfacet
facet normal 0.9715203387831296 -3.264945800272374e-17 0.2369561801910072
  outer loop
    vertex 5.0 9.999999999999998 0.0
    vertex -3.656128489416696e-18 1.4999999999999987 20.5
    vertex 5.0 1.4999999999999987 0.0
  endloop
endfacet
facet normal 0.9715203387831296 -3.264945800272374e-17 0.2369561801910072
  outer loop
    vertex -3.656128489416696e-18 1.4999999999999987 20.5
    vertex 5.0 9.999999999999998 0.0
    vertex -3.656128489416696e-18 12.999999999999998 20.5
  endloop
endfacet
facet normal 0.0 -1.0 0.0
  outer loop
    vertex 1.5 12.999999999999998 22.0
    vertex 0.0 12.999999999999998 23.5
    vertex -3.656128489416696e-18 12.999999999999998 20.5
  endloop
endfacet
facet normal 0.0 -1.0 0.0
  outer loop
    vertex 0.0 12.999999999999998 23.5
    vertex 1.5 12.999999999999998 22.0
    vertex 1.4488887394336025 12.999999999999998 22.38822856765378
  endloop
endfacet
facet normal 0.0 -1.0 0.0
  outer loop
    vertex 0.0 12.999999999999998 23.5
    vertex 1.4488887394336025 12.999999999999998 22.38822856765378
    vertex 1.2990381056766587 12.999999999999998 22.749999999999996
  endloop
endfacet
facet normal 0.0 -1.0 0.0
  outer loop
    vertex 0.0 12.999999999999998 23.5
    vertex 1.2990381056766587 12.999999999999998 22.749999999999996
    vertex 1.0606601717798216 12.999999999999998 23.06066017177982
  endloop
endfacet
facet normal 0.0 -1.0 0.0
  outer loop
    vertex 0.0 12.999999999999998 23.5
    vertex 1.0606601717798216 12.999999999999998 23.06066017177982
    vertex 0.7500000000000008 12.999999999999998 23.299038105676658
  endloop
endfacet
facet normal 0.0 -1.0 0.0
  outer loop
    vertex 0.0 12.999999999999998 23.5
    vertex 0.7500000000000008 12.999999999999998 23.299038105676658
    vertex 0.3882285676537824 12.999999999999998 23.448888739433603
  endloop
endfacet
facet normal 0.0 0.0 -1.0
  outer loop
    vertex -7.049916206369744e-16 14.499999999999998 0.0
    vertex 5.0 9.999999999999998 0.0
    vertex -7.826979293989726e-32 2.8199664825478975e-15 0.0
  endloop
endfacet
facet normal 0.0 0.0 -1.0
  outer loop
    vertex 5.0 9.999999999999998 0.0
    vertex -7.049916206369744e-16 14.499999999999998 0.0
    vertex 21.0 14.499999999999998 0.0
  endloop
endfacet
facet normal 0.0 0.0 -1.0
  outer loop
    vertex 5.0 9.999999999999998 0.0
    vertex 21.0 14.499999999999998 0.0
    vertex 19.499999999999996 9.999999999999998 0.0
  endloop
endfacet
facet normal 0.0 0.0 -1.0
  outer loop
    vertex 19.499999999999996 9.999999999999998 0.0
    vertex 21.0 14.499999999999998 0.0
    vertex 19.499999999999996 1.4999999999999987 0.0
  endloop
endfacet
facet normal 0.0 0.0 -1.0
  outer loop
    vertex -7.826979293989726e-32 2.8199664825478975e-15 0.0
    vertex 5.0 1.4999999999999987 0.0
    vertex 21.0 0.0 0.0
  endloop
endfacet
facet normal 0.0 0.0 -1.0
  outer loop
    vertex 5.0 1.4999999999999987 0.0
    vertex -7.826979293989726e-32 2.8199664825478975e-15 0.0
    vertex 5.0 9.999999999999998 0.0
  endloop
endfacet
facet normal 0.0 0.0 -1.0
  outer loop
    vertex 21.0 0.0 0.0
    vertex 5.0 1.4999999999999987 0.0
    vertex 19.499999999999996 1.4999999999999987 0.0
  endloop
endfacet
facet normal 0.0 0.0 -1.0
  outer loop
    vertex 21.0 0.0 0.0
    vertex 19.499999999999996 1.4999999999999987 0.0
    vertex 21.0 14.499999999999998 0.0
  endloop
endfacet
facet normal 0.0 0.0 -1.0
  outer loop
    vertex -7.049916206369744e-16 14.499999999999998 -16.5
    vertex -3.9999999999999996 0.0 -16.5
    vertex -3.9999999999999996 14.499999999999998 -16.5
  endloop
endfacet
facet normal 0.0 0.0 -1.0
  outer loop
    vertex -3.9999999999999996 0.0 -16.5
    vertex -7.049916206369744e-16 14.499999999999998 -16.5
    vertex -7.826979293989726e-32 2.8199664825478975e-15 -16.5
  endloop
endfacet
facet normal -1.0 0.0 0.0
  outer loop
    vertex -3.9999999999999996 14.499999999999998 -1.5
    vertex -3.9999999999999996 0.0 -16.5
    vertex -3.9999999999999996 0.0 -1.5
  endloop
endfacet
facet normal -1.0 0.0 0.0
  outer loop
    vertex -3.9999999999999996 0.0 -16.5
    vertex -3.9999999999999996 14.499999999999998 -1.5
    vertex -3.9999999999999996 14.499999999999998 -16.5
  endloop
endfacet
facet normal 1.0 4.8620111768067205e-17 0.0
  outer loop
    vertex -7.826979293989726e-32 2.8199664825478975e-15 -16.5
    vertex -7.826979293989726e-32 2.8199664825478975e-15 0.0
    vertex 0.0 0.0 -1.5
  endloop
endfacet
facet normal 1.0 4.8620111768067205e-17 0.0
  outer loop
    vertex -7.826979293989726e-32 2.8199664825478975e-15 0.0
    vertex -7.826979293989726e-32 2.8199664825478975e-15 -16.5
    vertex -7.049916206369744e-16 14.499999999999998 -16.5
  endloop
endfacet
facet normal 1.0 4.8620111768067205e-17 0.0
  outer loop
    vertex -7.826979293989726e-32 2.8199664825478975e-15 0.0
    vertex -7.049916206369744e-16 14.499999999999998 -16.5
    vertex -7.049916206369744e-16 14.499999999999998 0.0
  endloop
endfacet
facet normal 1.0 4.8620111768067205e-17 0.0
  outer loop
    vertex -7.049916206369744e-16 14.499999999999998 0.0
    vertex -7.049916206369744e-16 14.499999999999998 -16.5
    vertex -7.049916206369744e-16 14.499999999999998 -1.5
  endloop
endfacet
facet normal 1.803905887419949e-17 1.0 1.2326670241940184e-16
  outer loop
    vertex -3.9999999999999996 14.499999999999998 10.0
    vertex -7.049916206369744e-16 14.499999999999998 -1.5
    vertex -3.9999999999999996 14.499999999999998 -1.5
  endloop
endfacet
facet normal 1.803905887419949e-17 1.0 1.2326670241940184e-16
  outer loop
    vertex -7.049916206369744e-16 14.499999999999998 -1.5
    vertex -3.9999999999999996 14.499999999999998 10.0
    vertex -7.049916206369744e-16 14.499999999999998 0.0
  endloop
endfacet
facet normal 1.803905887419949e-17 1.0 1.2326670241940184e-16
  outer loop
    vertex -7.049916206369744e-16 14.499999999999998 0.0
    vertex -3.9999999999999996 14.499999999999998 10.0
    vertex 21.0 14.499999999999998 0.0
  endloop
endfacet
facet normal 1.803905887419949e-17 1.0 1.2326670241940184e-16
  outer loop
    vertex 21.0 14.499999999999998 0.0
    vertex -3.9999999999999996 14.499999999999998 10.0
    vertex 0.0 14.499999999999998 10.0
  endloop
endfacet
facet normal 1.803905887419949e-17 1.0 1.2326670241940184e-16
  outer loop
    vertex 21.0 14.499999999999998 0.0
    vertex 0.0 14.499999999999998 10.0
    vertex 3.0 14.499999999999996 22.0
  endloop
endfacet
facet normal 1.803905887419949e-17 1.0 1.2326670241940184e-16
  outer loop
    vertex 3.0 14.499999999999996 22.0
    vertex 0.0 14.499999999999998 10.0
    vertex 0.0 14.499999999999996 22.0
  endloop
endfacet
facet normal 1.803905887419949e-17 1.0 1.2326670241940184e-16
  outer loop
    vertex 3.0 14.499999999999996 22.0
    vertex 0.0 14.499999999999996 22.0
    vertex 1.5 14.499999999999996 22.0
  endloop
endfacet
facet normal 0.0 -0.990830168044299 0.13511320473331356
  outer loop
    vertex 1.5 12.999999999999998 22.0
    vertex 5.0 9.999999999999998 0.0
    vertex 19.499999999999996 9.999999999999998 0.0
  endloop
endfacet
facet normal -0.0 1.0 -0.0
  outer loop
    vertex -3.9999999999999996 14.499999999999998 -1.5
    vertex -7.049916206369744e-16 14.499999999999998 -16.5
    vertex -3.9999999999999996 14.499999999999998 -16.5
  endloop
endfacet
facet normal -0.0 1.0 -0.0
  outer loop
    vertex -7.049916206369744e-16 14.499999999999998 -16.5
    vertex -3.9999999999999996 14.499999999999998 -1.5
    vertex -7.049916206369744e-16 14.499999999999998 -1.5
  endloop
endfacet
facet normal 0.0 -0.0 1.0
  outer loop
    vertex 0.0 2.8199664825478975e-15 10.0
    vertex -3.9999999999999996 14.499999999999998 10.0
    vertex -3.9999999999999996 2.8199664825478975e-15 10.0
  endloop
endfacet
facet normal 0.0 -0.0 1.0
  outer loop
    vertex -3.9999999999999996 14.499999999999998 10.0
    vertex 0.0 2.8199664825478975e-15 10.0
    vertex 0.0 14.499999999999998 10.0
  endloop
endfacet
facet normal -0.11605177063713214 -0.9864400504156212 0.11605177063713176
  outer loop
    vertex 1.5 12.999999999999998 22.0
    vertex -3.656128489416696e-18 12.999999999999998 20.5
    vertex 5.0 9.999999999999998 0.0
  endloop
endfacet
facet normal 0.773957299203321 8.988707359850921e-18 0.6332377902572627
  outer loop
    vertex 21.0 14.499999999999998 0.0
    vertex 3.0 0.0 22.0
    vertex 21.0 0.0 0.0
  endloop
endfacet
facet normal 0.773957299203321 8.988707359850921e-18 0.6332377902572627
  outer loop
    vertex 3.0 0.0 22.0
    vertex 21.0 14.499999999999998 0.0
    vertex 3.0 14.499999999999996 22.0
  endloop
endfacet
facet normal -1.0 0.0 0.0
  outer loop
    vertex -3.9999999999999996 2.8199664825478975e-15 10.0
    vertex -3.9999999999999996 14.499999999999998 -1.5
    vertex -3.9999999999999996 0.0 -1.5
  endloop
endfacet
facet normal -1.0 0.0 0.0
  outer loop
    vertex -3.9999999999999996 14.499999999999998 -1.5
    vertex -3.9999999999999996 2.8199664825478975e-15 10.0
    vertex -3.9999999999999996 14.499999999999998 10.0
  endloop
endfacet
facet normal -3.524958103184872e-16 1.0 9.399888275159658e-17
  outer loop
    vertex -3.9999999999999996 0.0 -1.5
    vertex -7.826979293989726e-32 2.8199664825478975e-15 -16.5
    vertex -3.9999999999999996 0.0 -16.5
  endloop
endfacet
facet normal -3.524958103184872e-16 1.0 9.399888275159658e-17
  outer loop
    vertex -7.826979293989726e-32 2.8199664825478975e-15 -16.5
    vertex -3.9999999999999996 0.0 -1.5
    vertex 0.0 0.0 -1.5
  endloop
endfacet
facet normal 2.306974360458391e-16 1.0 -2.6824179031324806e-16
  outer loop
    vertex 0.0 14.499999999999998 25.0
    vertex 1.5 14.499999999999996 22.0
    vertex 0.0 14.499999999999996 22.0
  endloop
endfacet
facet normal 2.306974360458391e-16 1.0 -2.6824179031324806e-16
  outer loop
    vertex 1.5 14.499999999999996 22.0
    vertex 0.0 14.499999999999998 25.0
    vertex 3.0 14.499999999999996 22.0
  endloop
endfacet
facet normal 2.306974360458391e-16 1.0 -2.6824179031324806e-16
  outer loop
    vertex 3.0 14.499999999999996 22.0
    vertex 0.0 14.499999999999998 25.0
    vertex 2.897777478867204 14.499999999999996 22.776457135307563
  endloop
endfacet
facet normal 2.306974360458391e-16 1.0 -2.6824179031324806e-16
  outer loop
    vertex 2.897777478867204 14.499999999999996 22.776457135307563
    vertex 0.0 14.499999999999998 25.0
    vertex 2.598076211353315 14.499999999999996 23.5
  endloop
endfacet
facet normal 2.306974360458391e-16 1.0 -2.6824179031324806e-16
  outer loop
    vertex 2.598076211353315 14.499999999999996 23.5
    vertex 0.0 14.499999999999998 25.0
    vertex 2.121320343559642 14.499999999999996 24.121320343559642
  endloop
endfacet
facet normal 2.306974360458391e-16 1.0 -2.6824179031324806e-16
  outer loop
    vertex 2.121320343559642 14.499999999999996 24.121320343559642
    vertex 0.0 14.499999999999998 25.0
    vertex 1.4999999999999978 14.499999999999996 24.598076211353316
  endloop
endfacet
facet normal 2.306974360458391e-16 1.0 -2.6824179031324806e-16
  outer loop
    vertex 1.4999999999999978 14.499999999999996 24.598076211353316
    vertex 0.0 14.499999999999998 25.0
    vertex 0.7764571353075608 14.499999999999996 24.897777478867205
  endloop
endfacet
facet normal -0.9914448613738105 4.560301510886969e-21 -0.13052619222005127
  outer loop
    vertex 1.4488887394336025 12.999999999999998 22.38822856765378
    vertex 1.5 1.4999999999999987 22.0
    vertex 1.4488887394336025 1.4999999999999987 22.38822856765378
  endloop
endfacet
facet normal -0.9914448613738105 4.560301510886969e-21 -0.13052619222005127
  outer loop
    vertex 1.5 1.4999999999999987 22.0
    vertex 1.4488887394336025 12.999999999999998 22.38822856765378
    vertex 1.5 12.999999999999998 22.0
  endloop
endfacet
endsolid extensionBlowerVinsV2
